# AST/ASF file generated using VICON BodyLanguage
# -----------------------------------------------
:version 1.10
:name VICON
:units
  mass 1.0
  length 0.45
  angle deg
:documentation
   .ast/.asf automatically generated from VICON data using
   VICON BodyBuilder and BodyLanguage model FoxedUp or BRILLIANT.MOD
:root
   order TX TY TZ RX RY RZ
   axis XYZ
   position 0 0 0  
   orientation 0 0 0 
:bonedata
  begin
     id 1 
     name lhipjoint
     direction 0.606768 -0.715223 0.346827 
     length 2.41543 
     axis 0 0 0  XYZ
  end
  begin
     id 2 
     name lfemur
     direction 0.34202 -0.939693 0  
     length 7.2778  
     axis 0 0 20  XYZ
    dof rx ry rz
    limits (-160.0 20.0)
           (-70.0 70.0)
           (-60.0 70.0)
  end
  begin
     id 3 
     name ltibia
     direction 0.34202 -0.939693 0   
     length 7.61811   
     axis 0 0 20   XYZ
    dof rx
    limits (-10.0 170.0)
  end
  begin
     id 4 
     name lfoot
     direction 0.0823924 -0.226371 0.97055   
     length 2.33618   
     axis -90 7.62852e-016 20   XYZ
    dof rx rz
    limits (-45.0 90.0)
           (-70.0 20.0)
  end
  begin
     id 5 
     name ltoes
     direction 1.53554e-011 -4.21934e-011 1   
     length 1.17015   
     axis -90 7.62852e-016 20   XYZ
    dof rx
    limits (-90.0 20.0)
  end
  begin
     id 6 
     name rhipjoint
     direction -0.6077 -0.714582 0.346516   
     length 2.4176  
     axis 0 0 0  XYZ 
  end
  begin
     id 7 
     name rfemur
     direction -0.34202 -0.939693 0   
     length 7.28127   
     axis 0 0 -20   XYZ
    dof rx ry rz
    limits (-160.0 20.0)
           (-70.0 70.0)
           (-70.0 60.0)
  end
  begin
     id 8 
     name rtibia
     direction -0.34202 -0.939693 0   
     length 7.77648   
     axis 0 0 -20   XYZ
    dof rx
    limits (-10.0 170.0)
 end
 begin
     id 9 
     name rfoot
     direction -0.0809463 -0.222398 0.97159   
     length 2.37533  
     axis -90 -7.62852e-016 -20   XYZ
    dof rx rz
    limits (-45.0 90.0)
           (-20.0 70.0)
  end
  begin
     id 10 
     name rtoes
     direction -1.53568e-011 -4.21714e-011 1   
     length 1.18972   
     axis -90 -7.62852e-016 -20   XYZ
    dof rx
    limits (-90.0 20.0)
  end
  begin
     id 11 
     name lowerback
     direction 0.010968 0.991932 -0.126297   
     length 2.21698   
     axis 0 0 0   XYZ
    dof rx ry rz
    limits (-20.0 45.0)
           (-30.0 30.0)
           (-30.0 30.0)
  end
  begin
     id 12 
     name upperback
     direction 0.0167007 0.997503 -0.0686276   
     length 2.22371   
     axis 0 0 0   XYZ
    dof rx ry rz
    limits (-20.0 45.0)
           (-30.0 30.0)
           (-30.0 30.0)
  end
  begin
     id 13 
     name thorax
     direction 0.0111721 0.999885 -0.0102878   
     length 2.25242   
     axis 0 0 0   XYZ
    dof rx ry rz
    limits (-20.0 45.0)
           (-30.0 30.0)
           (-30.0 30.0)
  end
  begin
     id 14 
     name lowerneck
     direction -0.0120265 0.990428 0.137508   
     length 1.57674   
     axis 0 0 0   XYZ
    dof rx ry rz
    limits (-20.0 45.0)
           (-30.0 30.0)
           (-30.0 30.0)
  end
  begin
     id 15 
     name upperneck
     direction 0.0175669 0.998907 0.0433089   
     length 1.5618   
     axis 0 0 0   XYZ
    dof rx ry rz
    limits (-20.0 45.0)
           (-30.0 30.0)
           (-30.0 30.0)
  end
  begin
     id 16
     name head
     direction 0.00754609 0.99997 0.00185367  
     length 1.60579  
     axis 0 0 0   XYZ
    dof rx ry rz
    limits (-20.0 45.0)
           (-30.0 30.0)
           (-30.0 30.0)
  end
  begin
     id 17 
     name lclavicle
     direction 0.885866 0.429166 -0.176231  
     length 3.44967  
     axis 0 0 0   XYZ
    dof ry rz
    limits (-20.0 10.0)
           (0.0 20.0)
  end
  begin
     id 18 
     name lhumerus
     direction 1 -4.48973e-011 -1.90255e-027   
     length 5.20607   
     axis 180 -30 -90   XYZ
    dof rx ry rz
    limits (-60.0 90.0)
           (-90.0 90.0)
           (-90.0 90.0)
  end
  begin
     id 19
     name lradius
     direction 1 -4.48956e-011 9.87925e-027   
     length 3.39961   
     axis 180 -30 -90   XYZ
    dof rx
    limits (-10.0 170.0)
  end
  begin
     id 20
     name lwrist
     direction 1 -4.48985e-011 1.73247e-026   
     length 1.6998   
     axis -9.60847e-015 90 90   XYZ
    dof ry
    limits (-180.0 0.0)
 end
  begin
     id 21 
     name lhand
     direction 1 -4.48798e-011 3.46119e-026   
     length 0.519693   
     axis -2.21073e-014 90 90   XYZ
    dof rx rz
    limits (-90.0 90.0)
           (-45.0 45.0)
  end
  begin
     id 22 
     name lfingers
     direction 1 -4.48938e-011 6.92797e-026   
     length 0.41899   
     axis -4.42155e-014 90 90   XYZ
    dof rx
    limits (0.0 90.0)
  end
  begin
     id 23
     name lthumb
     direction 0.707107 -6.34952e-011 0.707107   
     length 0.601588   
     axis -90 45 6.0103e-014   XYZ
    dof rx rz
    limits (-45.0 45.0)
           (-45.0 45.0)
  end
  begin
     id 24 
     name rclavicle
     direction -0.866736 0.456792 -0.200276   
     length 3.45032  
     axis 0 0 0   XYZ 
    dof ry rz
    limits (-10.0 20.0)
           (-20.0 0.0)
  end
  begin
     id 25 
     name rhumerus
     direction -1 -4.4897e-011 8.65094e-028  
     length 5.32214   
     axis 180 30 90   XYZ
    dof rx ry rz
    limits (-90.0 60.0)
           (-90.0 90.0)
           (-90.0 90.0)
  end
  begin
     id 26 
     name rradius
     direction -1 -4.48987e-011 1.08427e-026   
     length 3.51208   
     axis 180 30 90   XYZ
    dof rx
    limits (-10.0 170.0)
  end
  begin
     id 27 
     name rwrist
     direction -1 -4.48961e-011 1.73222e-026   
     length 1.75604   
     axis -9.60847e-015 -90 -90   XYZ
    dof ry
    limits (-180.0 0.0)
  end
  begin
     id 28
     name rhand
     direction -1 -4.48895e-011 3.46314e-026   
     length 0.586681   
     axis -2.21073e-014 -90 -90   XYZ
    dof rx rz
    limits (-90.0 90.0)
           (-45.0 45.0)
  end
  begin
     id 29
     name rfingers
     direction -1 -4.48968e-011 6.92916e-026   
     length 0.472997   
     axis -4.42155e-014 -90 -90   XYZ
    dof rx
    limits (0.0 90.0)
  end
  begin
     id 30
     name rthumb
     direction -0.707107 -6.34848e-011 0.707107   
     length 0.679133   
     axis -90 -45 -6.0103e-014   XYZ
    dof rx rz
    limits (-45.0 45.0)
           (-45.0 45.0)
  end
:hierarchy
  begin
    root lhipjoint rhipjoint lowerback
    lhipjoint lfemur
    lfemur ltibia
    ltibia lfoot
    lfoot ltoes
    rhipjoint rfemur
    rfemur rtibia
    rtibia rfoot
    rfoot rtoes
    lowerback upperback
    upperback thorax
    thorax lowerneck lclavicle rclavicle
    lowerneck upperneck
    upperneck head
    lclavicle lhumerus
    lhumerus lradius
    lradius lwrist
    lwrist lhand lthumb
    lhand lfingers
    rclavicle rhumerus
    rhumerus rradius
    rradius rwrist
    rwrist rhand rthumb
    rhand rfingers
  end

#!OML:ASF H:\Dans Jumps\Project 1\Capture day 1\Session 1\subject.ASF
:FULLY-SPECIFIED
:DEGREES
19
root 0.0857059 17.5411 -13.3085 6.76737 -0.252195 -1.54945
lowerback -3.79601 -0.784306 0.420099
upperback 2.3929 -1.14828 1.77267
thorax 4.62976 -0.587107 1.50787
lowerneck -12.3374 0.689273 -1.76967
upperneck 31.3962 1.24835 0.610424
head 12.3989 0.418313 0.714992
rclavicle -8.19987e-015 7.15625e-015
rhumerus -27.2443 -29.3415 -72.9159
rradius 26.7013
rwrist 31.9159
rhand -18.7955 -26.0978
rfingers 7.12502
rthumb 7.50253 -55.9448
lclavicle -8.19987e-015 7.15625e-015
lhumerus -21.0775 6.42088 84.869
lradius 20.0315
lwrist -0.14123
lhand -24.2481 -1.9585
lfingers 7.12502
lthumb 2.23771 28.0095
rfemur -11.1357 -3.73774 21.1358
rtibia 20.7073
rfoot -15.272 -2.58255
rtoes 10.9696
lfemur -11.7874 7.66084 -18.8004
ltibia 20.6464
lfoot -11.7065 7.77409
ltoes -3.84841
20
root 0.0872347 17.5411 -13.3107 6.77712 -0.245739 -1.55431
lowerback -3.79873 -0.779812 0.421248
upperback 2.40203 -1.14273 1.77648
thorax 4.64075 -0.584414 1.51155
lowerneck -12.3727 0.684459 -1.77472
upperneck 31.4988 1.23803 0.629686
head 12.4484 0.414611 0.722906
rclavicle -3.03147e-015 -1.15295e-014
rhumerus -27.2552 -29.5018 -72.8414
rradius 26.5888
rwrist 32.0808
rhand -18.7599 -26.1461
rfingers 7.12502
rthumb 7.53686 -55.9919
lclavicle -3.03147e-015 -1.15295e-014
lhumerus -21.0771 6.41343 84.8638
lradius 20.037
lwrist -0.118315
lhand -24.2521 -1.90551
lfingers 7.12502
lthumb 2.23388 28.0625
rfemur -11.1547 -3.74612 21.1367
rtibia 20.7081
rfoot -15.2685 -2.57955
rtoes 10.979
lfemur -11.7849 7.61762 -18.8014
ltibia 20.6077
lfoot -11.6983 7.79049
ltoes -3.79579
21
root 0.0888851 17.5412 -13.3131 6.78868 -0.238771 -1.55907
lowerback -3.80317 -0.775511 0.423751
upperback 2.41193 -1.13751 1.77945
thorax 4.65349 -0.581838 1.51354
lowerneck -12.4127 0.67979 -1.78291
upperneck 31.6091 1.22786 0.652106
head 12.502 0.410935 0.732716
rclavicle 1.21259e-014 -1.70955e-014
rhumerus -27.2613 -29.6653 -72.7709
rradius 26.4775
rwrist 32.2425
rhand -18.7224 -26.1895
rfingers 7.12502
rthumb 7.57314 -56.0339
lclavicle 1.21259e-014 -1.70955e-014
lhumerus -21.0768 6.39726 84.8652
lradius 20.0485
lwrist -0.0864265
lhand -24.2606 -1.88253
lfingers 7.12502
lthumb 2.22568 28.0856
rfemur -11.1773 -3.75872 21.1375
rtibia 20.7101
rfoot -15.2634 -2.57428
rtoes 10.9816
lfemur -11.7793 7.57156 -18.803
ltibia 20.5583
lfoot -11.6888 7.8101
ltoes -3.74612
22
root 0.0905733 17.5415 -13.3156 6.80284 -0.230794 -1.56362
lowerback -3.80706 -0.772368 0.424257
upperback 2.42125 -1.13375 1.78334
thorax 4.6654 -0.58006 1.5175
lowerneck -12.4638 0.676677 -1.79269
upperneck 31.7308 1.21998 0.676624
head 12.5629 0.408236 0.744138
rclavicle 1.56046e-014 -2.0276e-014
rhumerus -27.2592 -29.8369 -72.7017
rradius 26.3598
rwrist 32.4052
rhand -18.6982 -26.2164
rfingers 7.12502
rthumb 7.59649 -56.06
lclavicle 1.56046e-014 -2.0276e-014
lhumerus -21.0783 6.37872 84.873
lradius 20.0656
lwrist -0.0507396
lhand -24.2669 -1.88129
lfingers 7.12502
lthumb 2.21958 28.0869
rfemur -11.2048 -3.77351 21.1383
rtibia 20.7131
rfoot -15.2547 -2.56828
rtoes 10.979
lfemur -11.7725 7.52529 -18.8048
ltibia 20.5002
lfoot -11.6787 7.82617
ltoes -3.69882
23
root 0.0922788 17.5417 -13.3184 6.81805 -0.220517 -1.56933
lowerback -3.80931 -0.770868 0.424238
upperback 2.43024 -1.13218 1.78867
thorax 4.67613 -0.579414 1.52311
lowerneck -12.516 0.675897 -1.80572
upperneck 31.8554 1.21496 0.705429
head 12.6253 0.40694 0.758249
rclavicle 1.70955e-014 -1.70955e-014
rhumerus -27.2561 -29.9792 -72.6446
rradius 26.2629
rwrist 32.5362
rhand -18.6603 -26.2662
rfingers 7.12502
rthumb 7.63305 -56.1085
lclavicle 1.70955e-014 -1.70955e-014
lhumerus -21.0831 6.36226 84.8864
lradius 20.0887
lwrist -0.0132773
lhand -24.2648 -1.8849
lfingers 7.12502
lthumb 2.22165 28.0833
rfemur -11.2348 -3.78847 21.1408
rtibia 20.7169
rfoot -15.2432 -2.56651
rtoes 10.9563
lfemur -11.7645 7.47997 -18.8043
ltibia 20.4362
lfoot -11.6705 7.83431
ltoes -3.64081
24
root 0.0939479 17.5421 -13.3215 6.8359 -0.205414 -1.57597
lowerback -3.80868 -0.771258 0.423264
upperback 2.43831 -1.13308 1.79535
thorax 4.68438 -0.580042 1.53049
lowerneck -12.5746 0.676498 -1.81903
upperneck 31.9841 1.21162 0.735896
head 12.6909 0.406526 0.773426
rclavicle -5.61567e-015 2.38542e-015
rhumerus -27.2511 -30.0877 -72.6018
rradius 26.1875
rwrist 32.6235
rhand -18.6158 -26.3339
rfingers 7.12502
rthumb 7.67601 -56.1746
lclavicle -5.61567e-015 2.38542e-015
lhumerus -21.09 6.34024 84.9062
lradius 20.1174
lwrist 0.0335136
lhand -24.253 -1.87968
lfingers 7.12502
lthumb 2.23304 28.0884
rfemur -11.2688 -3.80405 21.1449
rtibia 20.7211
rfoot -15.2287 -2.56743
rtoes 10.9307
lfemur -11.7587 7.43349 -18.8016
ltibia 20.368
lfoot -11.664 7.83397
ltoes -3.58284
25
root 0.0955168 17.5426 -13.325 6.85599 -0.187053 -1.58302
lowerback -3.80615 -0.771582 0.422383
upperback 2.44554 -1.13381 1.80098
thorax 4.69064 -0.580558 1.53676
lowerneck -12.6311 0.676559 -1.82936
upperneck 32.1094 1.20609 0.767882
head 12.7549 0.40575 0.788364
rclavicle -4.96962e-017 2.78299e-015
rhumerus -27.2476 -30.1727 -72.5717
rradius 26.1304
rwrist 32.6797
rhand -18.5707 -26.4175
rfingers 7.12502
rthumb 7.71956 -56.2566
lclavicle -4.96962e-017 2.78299e-015
lhumerus -21.0983 6.30675 84.9304
lradius 20.1506
lwrist 0.0862951
lhand -24.2302 -1.85205
lfingers 7.12502
lthumb 2.25507 28.1158
rfemur -11.306 -3.81403 21.1501
rtibia 20.7254
rfoot -15.2132 -2.57525
rtoes 10.9125
lfemur -11.7557 7.38663 -18.797
ltibia 20.2973
lfoot -11.6588 7.82651
ltoes -3.51407
26
root 0.0970105 17.5432 -13.3289 6.8777 -0.163549 -1.58964
lowerback -3.80178 -0.773082 0.420938
upperback 2.45293 -1.13601 1.80592
thorax 4.69605 -0.581816 1.54255
lowerneck -12.684 0.67558 -1.83907
upperneck 32.2285 1.19854 0.800395
head 12.8158 0.404299 0.803078
rclavicle -1.07841e-014 -7.95139e-016
rhumerus -27.2438 -30.2482 -72.5495
rradius 26.0814
rwrist 32.7206
rhand -18.5389 -26.4795
rfingers 7.12502
rthumb 7.75022 -56.3175
lclavicle -1.07841e-014 -7.95139e-016
lhumerus -21.1056 6.26675 84.9592
lradius 20.1852
lwrist 0.141509
lhand -24.2061 -1.81792
lfingers 7.12502
lthumb 2.27832 28.1497
rfemur -11.3447 -3.82334 21.1554
rtibia 20.7289
rfoot -15.1973 -2.58679
rtoes 10.9086
lfemur -11.7561 7.34133 -18.792
ltibia 20.2255
lfoot -11.654 7.81102
ltoes -3.45134
27
root 0.0984618 17.5438 -13.333 6.90195 -0.136197 -1.59424
lowerback -3.79777 -0.775272 0.417747
upperback 2.45994 -1.13898 1.80957
thorax 4.7013 -0.583483 1.54791
lowerneck -12.7284 0.673482 -1.84691
upperneck 32.339 1.18933 0.830559
head 12.8715 0.402145 0.816217
rclavicle 1.64494e-014 -1.98785e-014
rhumerus -27.2378 -30.3394 -72.5261
rradius 26.0274
rwrist 32.7807
rhand -18.5115 -26.5148
rfingers 7.12502
rthumb 7.7767 -56.3518
lclavicle 1.64494e-014 -1.98785e-014
lhumerus -21.1113 6.22086 84.9919
lradius 20.2191
lwrist 0.196618
lhand -24.1797 -1.77403
lfingers 7.12502
lthumb 2.30385 28.1933
rfemur -11.3865 -3.83138 21.1588
rtibia 20.732
rfoot -15.1813 -2.60132
rtoes 10.9166
lfemur -11.7604 7.29995 -18.789
ltibia 20.1531
lfoot -11.6526 7.78879
ltoes -3.38949
28
root 0.0998505 17.5445 -13.3374 6.92661 -0.105565 -1.59728
lowerback -3.79285 -0.778278 0.412674
upperback 2.46724 -1.14289 1.81255
thorax 4.70639 -0.585668 1.55358
lowerneck -12.7657 0.668879 -1.85401
upperneck 32.4389 1.17679 0.858252
head 12.9215 0.398417 0.827666
rclavicle -4.87022e-015 8.74653e-015
rhumerus -27.2326 -30.4447 -72.5004
rradius 25.9678
rwrist 32.8563
rhand -18.507 -26.4926
rfingers 7.12502
rthumb 7.78098 -56.3294
lclavicle -4.87022e-015 8.74653e-015
lhumerus -21.1133 6.17234 85.0285
lradius 20.248
lwrist 0.251117
lhand -24.1565 -1.74557
lfingers 7.12502
lthumb 2.32619 28.2215
rfemur -11.4283 -3.83789 21.161
rtibia 20.734
rfoot -15.1652 -2.6195
rtoes 10.9317
lfemur -11.7671 7.26865 -18.7876
ltibia 20.0808
lfoot -11.6541 7.75607
ltoes -3.32682
29
root 0.101198 17.5453 -13.342 6.9521 -0.0722343 -1.59532
lowerback -3.78823 -0.782961 0.401783
upperback 2.47489 -1.14868 1.81474
thorax 4.71215 -0.588964 1.56154
lowerneck -12.7887 0.662225 -1.86494
upperneck 32.5213 1.16229 0.884506
head 12.9612 0.393358 0.838679
rclavicle 4.02539e-015 -8.74653e-015
rhumerus -27.2271 -30.541 -72.4799
rradius 25.9164
rwrist 32.9268
rhand -18.5055 -26.4568
rfingers 7.12502
rthumb 7.78249 -56.2936
lclavicle 4.02539e-015 -8.74653e-015
lhumerus -21.1128 6.12603 85.0683
lradius 20.2652
lwrist 0.282322
lhand -24.1623 -1.77841
lfingers 7.12502
lthumb 2.32059 28.1887
rfemur -11.4716 -3.84313 21.158
rtibia 20.7356
rfoot -15.148 -2.64217
rtoes 10.9388
lfemur -11.7763 7.24374 -18.792
ltibia 20.0085
lfoot -11.6584 7.71657
ltoes -3.25325
30
root 0.102545 17.5461 -13.3468 6.97792 -0.0377003 -1.59065
lowerback -3.7836 -0.788824 0.38687
upperback 2.48364 -1.15583 1.81701
thorax 4.71918 -0.593076 1.57173
lowerneck -12.8041 0.655198 -1.87849
upperneck 32.5894 1.14791 0.910083
head 12.9932 0.388085 0.84972
rclavicle 7.10655e-015 -1.90833e-014
rhumerus -27.2193 -30.6215 -72.4674
rradius 25.8732
rwrist 32.9798
rhand -18.513 -26.417
rfingers 7.12502
rthumb 7.77525 -56.254
lclavicle 7.10655e-015 -1.90833e-014
lhumerus -21.1097 6.08637 85.1104
lradius 20.2703
lwrist 0.287224
lhand -24.1947 -1.8856
lfingers 7.12502
lthumb 2.28929 28.0819
rfemur -11.5159 -3.84647 21.1521
rtibia 20.7372
rfoot -15.1301 -2.66718
rtoes 10.9502
lfemur -11.7873 7.22712 -18.8
ltibia 19.9362
lfoot -11.6629 7.67058
ltoes -3.18335
31
root 0.103906 17.5471 -13.3518 7.00237 -0.00445705 -1.58276
lowerback -3.77856 -0.794662 0.368505
upperback 2.49409 -1.16275 1.81851
thorax 4.72779 -0.597178 1.58308
lowerneck -12.8098 0.6485 -1.89503
upperneck 32.6423 1.1343 0.936233
head 13.0167 0.383027 0.861402
rclavicle -5.36719e-015 -2.10712e-014
rhumerus -27.2101 -30.6698 -72.4694
rradius 25.8527
rwrist 33.0095
rhand -18.4956 -26.4219
rfingers 7.12502
rthumb 7.79203 -56.2583
lclavicle -5.36719e-015 -2.10712e-014
lhumerus -21.1048 6.04816 85.156
lradius 20.2739
lwrist 0.287633
lhand -24.231 -2.00291
lfingers 7.12502
lthumb 2.25425 27.9649
rfemur -11.5603 -3.84692 21.1424
rtibia 20.7401
rfoot -15.1116 -2.69497
rtoes 10.9526
lfemur -11.7976 7.21557 -18.812
ltibia 19.8632
lfoot -11.666 7.62057
ltoes -3.09973
32
root 0.10529 17.5481 -13.357 7.02659 0.0288011 -1.57165
lowerback -3.77204 -0.801102 0.346737
upperback 2.50575 -1.17023 1.81906
thorax 4.7369 -0.601663 1.59532
lowerneck -12.8101 0.643027 -1.90804
upperneck 32.6823 1.12266 0.958365
head 13.0337 0.378864 0.871026
rclavicle 1.31695e-014 -1.59028e-015
rhumerus -27.197 -30.6926 -72.4839
rradius 25.8471
rwrist 33.0191
rhand -18.4622 -26.4508
rfingers 7.12502
rthumb 7.82425 -56.2861
lclavicle 1.31695e-014 -1.59028e-015
lhumerus -21.0987 6.00605 85.2051
lradius 20.28
lwrist 0.296522
lhand -24.2635 -2.11118
lfingers 7.12502
lthumb 2.22283 27.857
rfemur -11.6061 -3.846 21.1289
rtibia 20.7445
rfoot -15.0925 -2.72346
rtoes 10.9571
lfemur -11.8091 7.20622 -18.8282
ltibia 19.7897
lfoot -11.6642 7.56851
ltoes -3.02376
